<svg width="1213" height="464" fill="none" xmlns="http://www.w3.org/2000/svg"><circle cx="1040" cy="384.508" r="12.5" stroke="#5A5A5A" stroke-width="4"/><circle cx="1176.5" cy="338.5" r="14.5" fill="#C4C4C4"/><circle cx="1116.5" cy="124.5" r="14.5" fill="#C4C4C4"/><path d="M1179.5 234.501H1126l-29.5 27.507h-114m0 0H861l-60.5-57.5h-819m1001 57.5-23.5-32.5h-67m269 110.993h-56.5l-84-61.493h-1039m1044.5 106H846.5L821 407.001l-839.5-4.993m1106.5 43.5H865.5l-24 17h-860m797.5-135H-18.5" stroke="#5A5A5A"/><path d="M1102 128H805.5m0 0H-21m826.5 0 40 50h174" stroke="#E5E5E5"/><circle cx="1105" cy="444" r="14.5" fill="#000" fill-opacity=".2" stroke="#C4C4C4" stroke-width="3"/><circle cx="1191" cy="233" r="8.5" fill="#000" fill-opacity=".2" stroke="#C4C4C4" stroke-width="3"/><circle cx="882.5" cy="230.008" r="8.5" fill="#000" fill-opacity=".2" stroke="#C4C4C4" stroke-width="3"/><circle cx="1027" cy="177" r="8" fill="#5A5A5A"/><circle cx="929" cy="64.508" r="12.5" stroke="#5A5A5A" stroke-width="4"/><path d="M997 16.008H700.5m0 0H-21m721.5 0 40 48h174" stroke="#E5E5E5"/><path d="M894 92.508H731l-12-14.5H-21" stroke="#5A5A5A"/><path d="M910 92.508a8 8 0 1 1-16 0 8 8 0 0 1 16 0Z" fill="#5A5A5A"/><circle cx="817" cy="334" r="7.5" fill="#000" fill-opacity=".2" stroke="#C4C4C4" stroke-width="3"/><circle cx="1003" cy="16" r="16" fill="#C4C4C4"/><circle cx="1187.01" cy="233.005" r="25" transform="rotate(-179.988 1187.01 233.005)" fill="#0098DB"/><circle cx="1187.01" cy="233.005" r="22.5" transform="rotate(-179.988 1187.01 233.005)" stroke="#000" stroke-opacity=".5" stroke-width="5"/></svg>