<svg width="1213" height="464" viewBox="0 0 1213 464" fill="none" xmlns="http://www.w3.org/2000/svg">
<circle cx="1040" cy="384.508" r="12.5" stroke="#5A5A5A" stroke-width="4"/>
<circle cx="1176.5" cy="338.5" r="14.5" fill="#C4C4C4"/>
<circle cx="1116.5" cy="124.5" r="14.5" fill="#C4C4C4"/>
<path d="M1179.5 234.501H1126L1096.5 262.008H982.5M982.5 262.008H861L800.5 204.508H779H-18.5M982.5 262.008L959 229.508H892M1161 340.501H1104.5L1020.5 279.008H814.5H779H-18.5M1026 385.008H846.5L821 407.001L-18.5 402.008M1088 445.508H865.5L841.5 462.508H-18.5M779 327.508H-18.5" stroke="#5A5A5A"/>
<path d="M1102 128H805.5M805.5 128H774H-21M805.5 128L845.5 178H1019.5" stroke="#E5E5E5"/>
<circle cx="1105" cy="444" r="14.5" fill="black" fill-opacity="0.2" stroke="#C4C4C4" stroke-width="3"/>
<circle cx="1191" cy="233" r="8.5" fill="black" fill-opacity="0.2" stroke="#C4C4C4" stroke-width="3"/>
<circle cx="882.5" cy="230.008" r="8.5" fill="black" fill-opacity="0.2" stroke="#C4C4C4" stroke-width="3"/>
<circle cx="1027" cy="177" r="8" fill="#5A5A5A"/>
<circle cx="929" cy="64.5078" r="12.5" stroke="#5A5A5A" stroke-width="4"/>
<path d="M997 16.0078H700.5M700.5 16.0078H669H-21M700.5 16.0078L740.5 64.0078H914.5" stroke="#E5E5E5"/>
<path d="M894 92.5078H731L719 78.0078H-21" stroke="#5A5A5A"/>
<path d="M910 92.5078C910 96.9261 906.418 100.508 902 100.508C897.582 100.508 894 96.9261 894 92.5078C894 88.0895 897.582 84.5078 902 84.5078C906.418 84.5078 910 88.0895 910 92.5078Z" fill="#5A5A5A"/>
<circle cx="817" cy="334" r="7.5" fill="black" fill-opacity="0.2" stroke="#C4C4C4" stroke-width="3"/>
<circle cx="1003" cy="16" r="16" fill="#C4C4C4"/>
<circle cx="1187.01" cy="233.005" r="25" transform="rotate(-179.988 1187.01 233.005)" fill="#0098DB"/>
<circle cx="1187.01" cy="233.005" r="22.5" transform="rotate(-179.988 1187.01 233.005)" stroke="black" stroke-opacity="0.5" stroke-width="5"/>
</svg>
