<svg width="444" height="465" viewBox="0 0 444 465" fill="none" xmlns="http://www.w3.org/2000/svg">
<path d="M49.0811 73.5105C49.0825 66.7876 55.1619 61.0117 63.0836 61.0133C71.0054 61.015 77.0825 66.7933 77.0811 73.5162C77.0797 80.2391 71.0003 86.015 63.0785 86.0133C55.1567 86.0117 49.0797 80.2333 49.0811 73.5105Z" stroke="#5A5A5A" stroke-width="4"/>
<ellipse cx="17.0694" cy="133.503" rx="17" ry="14.5" transform="rotate(-179.988 17.0694 133.503)" fill="#C4C4C4"/>
<ellipse cx="46.0303" cy="315.501" rx="16" ry="14.5" transform="rotate(-179.988 46.0303 315.501)" fill="#C4C4C4"/>
<path d="M324.543 254.566L303.043 254.562L242.555 197.05L121.055 197.025M67.0547 197.014L121.055 197.025M121.055 197.025L144.548 229.53L211.548 229.543M324.558 180.066L289.058 180.059L242.568 131.55L29.5681 131.506M324.583 57.0664L303.08 74.062L77.5798 74.016M324.595 1.06641L303.092 13.562L91.5922 13.5188" stroke="#5A5A5A"/>
<path d="M324.543 254.566L303.043 254.562L242.555 197.05L121.055 197.025M67.0547 197.014L121.055 197.025M121.055 197.025L144.548 229.53L211.548 229.543M324.558 180.066L289.058 180.059L242.568 131.55L29.5681 131.506M324.583 57.0664L303.08 74.062L77.5798 74.016M324.595 1.06641L303.092 13.562L91.5922 13.5188" stroke="#5A5A5A"/>
<path d="M329.531 315.067L298.031 315.061M1.53125 315L298.031 315.061M298.031 315.061L258.041 267.053L84.0411 267.017" stroke="#E5E5E5"/>
<path d="M324.543 254.566L303.043 254.562L242.555 197.05L121.055 197.025M67.0547 197.014L121.055 197.025M121.055 197.025L144.548 229.53L211.548 229.543M324.558 180.066L289.058 180.059L242.568 131.55L29.5681 131.506M324.583 57.0664L303.08 74.062L77.5798 74.016M324.595 1.06641L303.092 13.562L91.5922 13.5188" stroke="#5A5A5A"/>
<path d="M329.531 315.067L298.031 315.061M1.53125 315L298.031 315.061M298.031 315.061L258.041 267.053L84.0411 267.017" stroke="#E5E5E5"/>
<path d="M64.5928 15.5133C64.5942 8.46912 70.945 2.5146 79.0955 2.51626C87.2459 2.51793 93.5942 8.47504 93.5928 15.5192C93.5914 22.5634 87.2406 28.5179 79.0902 28.5163C70.9397 28.5146 64.5914 22.5575 64.5928 15.5133Z" fill="black" fill-opacity="0.2" stroke="#C4C4C4" stroke-width="3"/>
<path d="M54.5526 200.012C54.5534 196.014 58.2072 192.513 63.0542 192.514C67.9011 192.515 71.5534 196.018 71.5526 200.015C71.5518 204.013 67.8981 207.515 63.0511 207.514C58.2041 207.513 54.5518 204.009 54.5526 200.012Z" fill="black" fill-opacity="0.2" stroke="#C4C4C4" stroke-width="3"/>
<path d="M209.549 230.043C209.55 226.046 213.203 222.544 218.05 222.545C222.897 222.546 226.55 226.049 226.549 230.047C226.548 234.044 222.894 237.546 218.047 237.545C213.2 237.544 209.548 234.04 209.549 230.043Z" fill="black" fill-opacity="0.2" stroke="#C4C4C4" stroke-width="3"/>
<path d="M310.568 133.064C310.569 129.066 314.223 125.564 319.07 125.565C323.917 125.566 327.569 129.07 327.568 133.067C327.567 137.064 323.914 140.566 319.067 140.565C314.22 140.564 310.567 137.061 310.568 133.064Z" fill="black" fill-opacity="0.2" stroke="#C4C4C4" stroke-width="3"/>
<path d="M270.539 282.056L258.542 267.553L95.542 267.52" stroke="#5A5A5A"/>
<ellipse cx="87.0405" cy="267.018" rx="8" ry="7" transform="rotate(-179.988 87.0405 267.018)" fill="#5A5A5A"/>
<path d="M163.015 395.534C163.016 388.811 169.095 383.035 177.017 383.037C184.939 383.038 191.016 388.817 191.015 395.54C191.013 402.262 184.934 408.038 177.012 408.037C169.09 408.035 163.013 402.257 163.015 395.534Z" stroke="#5A5A5A" stroke-width="4"/>
<ellipse cx="98.0044" cy="440.504" rx="25" ry="21.5" transform="rotate(-179.988 98.0044 440.504)" fill="#0098DB"/>
<path d="M434.504 443.089L403.004 443.082M106.504 443.022L403.004 443.082M403.004 443.082L363.014 395.074L189.014 395.039" stroke="#E5E5E5"/>
<path d="M178.526 337.537C178.528 330.493 184.879 324.538 193.029 324.54C201.18 324.541 207.528 330.498 207.526 337.543C207.525 344.587 201.174 350.541 193.024 350.54C184.873 350.538 178.525 344.581 178.526 337.537Z" fill="black" fill-opacity="0.2" stroke="#C4C4C4" stroke-width="3"/>
<path d="M424.502 455.087C424.503 451.09 428.156 447.588 433.003 447.589C437.85 447.59 441.503 451.093 441.502 455.091C441.501 459.088 437.847 462.59 433 462.589C428.153 462.588 424.501 459.084 424.502 455.087Z" fill="black" fill-opacity="0.2" stroke="#C4C4C4" stroke-width="3"/>
<path d="M384.516 381.079L372.519 366.577L209.519 366.543" stroke="#5A5A5A"/>
<ellipse cx="203.521" cy="366.042" rx="8" ry="7" transform="rotate(-179.988 203.521 366.042)" fill="#5A5A5A"/>
</svg>
