<svg width="1155" height="465" viewBox="0 0 1155 465" fill="none" xmlns="http://www.w3.org/2000/svg">
<circle cx="1061" cy="385.507" r="12.5" stroke="#5A5A5A" stroke-width="4"/>
<circle cx="1109" cy="328.507" r="14.5" fill="#C4C4C4"/>
<circle cx="1138.5" cy="145.007" r="16" fill="#C4C4C4"/>
<path d="M795 145.007H826.5M1123 145.007H826.5M826.5 145.007L866.5 193.007H1040.5" stroke="#E5E5E5"/>
<path d="M1057.5 263.007H1003.5M1003.5 263.007H882L821.5 205.507H800H2.5M1003.5 263.007L980 230.507H913M1095 328.507H882L835.5 280.007H800H2.5M1047 386.007H821.5L800 403.007H2.5M1033 446.507H821.5L800 463.507H2.5M800 328.507H2.5" stroke="#5A5A5A"/>
<path d="M1123 145.007H826.5M826.5 145.007H795H0M826.5 145.007L866.5 193.007H1040.5" stroke="#E5E5E5"/>
<circle cx="1048.5" cy="446.007" r="14.5" fill="black" fill-opacity="0.2" stroke="#C4C4C4" stroke-width="3"/>
<circle cx="1067.5" cy="263.007" r="8.5" fill="black" fill-opacity="0.2" stroke="#C4C4C4" stroke-width="3"/>
<circle cx="903.5" cy="231.007" r="8.5" fill="black" fill-opacity="0.2" stroke="#C4C4C4" stroke-width="3"/>
<circle cx="808.5" cy="329.007" r="7.5" fill="black" fill-opacity="0.2" stroke="#C4C4C4" stroke-width="3"/>
<path d="M854.5 178.507L866.5 193.007H1029.5" stroke="#5A5A5A"/>
<circle cx="1037.5" cy="193.007" r="8" fill="#5A5A5A"/>
<circle cx="950" cy="65.5072" r="12.5" stroke="#5A5A5A" stroke-width="4"/>
<path d="M1052 17C1052 26.3888 1044.39 34 1035 34C1025.61 34 1018 26.3888 1018 17C1018 7.61117 1025.61 5.39553e-06 1035 5.39553e-06C1044.39 5.39553e-06 1052 7.61117 1052 17Z" fill="#C4C4C4"/>
<path d="M1018 17.0072H721.5M721.5 17.0072H690H0M721.5 17.0072L761.5 65.0072H935.5" stroke="#E5E5E5"/>
<path d="M946 122.507C946 129.551 939.65 135.507 931.5 135.507C923.35 135.507 917 129.551 917 122.507C917 115.463 923.35 109.507 931.5 109.507C939.65 109.507 946 115.463 946 122.507Z" fill="black" fill-opacity="0.2" stroke="#C4C4C4" stroke-width="3"/>
<path d="M915 93.5072H752L740 79.0072H0" stroke="#5A5A5A"/>
<path d="M931 93.5072C931 97.9255 927.418 101.507 923 101.507C918.582 101.507 915 97.9255 915 93.5072C915 89.0889 918.582 85.5072 923 85.5072C927.418 85.5072 931 89.0889 931 93.5072Z" fill="#5A5A5A"/>
</svg>
